#!OML:ASF H:\Terrain\Patient Classification 1\Walking\steve\steve.ASF
:FULLY-SPECIFIED
:DEGREES
79
root 6.74968 15.7141 -19.4964 6.23816 -3.66922 -4.05904
lowerback -1.11171 3.95115 6.11739
upperback -2.68767 5.31699 2.29339
thorax -1.81834 2.56288 -1.0566
lowerneck -9.57145 -0.974365 -2.4026
upperneck 15.8004 -1.01863 0.537051
head 6.39306 -0.587216 0.483813
rclavicle -5.19325e-014 -2.06736e-014
rhumerus -12.677 4.53678 -85.2746
rradius 33.0886
rwrist -10.1318
rhand -17.3378 -64.6856
rfingers 7.12502
rthumb 8.90943 94.4775
lclavicle -5.19325e-014 -2.06736e-014
lhumerus -52.6456 12.3963 74.5147
lradius 11.8128
lwrist -14.0655
lhand -20.8105 -13.4738
lfingers 7.12502
lthumb 5.55728 16.4333
rfemur -9.09035 -1.39217 29.5044
rtibia 32.2231
rfoot -20.0717 17.5741
rtoes 6.14469
lfemur -37.095 7.92972 -18.6425
ltibia 48.0991
lfoot -15.9536 1.35547
ltoes -22.1418
80
root 6.7604 15.7 -19.2622 6.32443 -4.09361 -4.47011
lowerback -1.11794 4.09455 6.53548
upperback -2.76191 5.51176 2.31233
thorax -1.84539 2.64965 -1.26535
lowerneck -9.72376 -0.923584 -2.14056
upperneck 16.1232 -0.943868 0.278618
head 6.51874 -0.557813 0.363589
rclavicle 3.2787e-014 -7.95139e-015
rhumerus -11.3324 5.53776 -84.923
rradius 32.4884
rwrist -12.46
rhand -20.5078 -45.2997
rfingers 7.12502
rthumb 5.84955 -75.1989
lclavicle 3.2787e-014 -7.95139e-015
lhumerus -54.9895 12.9571 72.457
lradius 11.7781
lwrist -15.589
lhand -20.1556 -13.066
lfingers 7.12502
lthumb 6.1896 16.8236
rfemur -7.78695 -1.68226 29.6322
rtibia 31.2242
rfoot -18.8098 19.2034
rtoes 9.34239
lfemur -37.8483 7.7625 -18.1595
ltibia 45.6475
lfoot -15.8058 1.45854
ltoes -21.428
81
root 6.77048 15.69 -19.0269 6.45264 -4.66487 -4.60916
lowerback -1.34454 4.35599 6.67604
upperback -2.71824 5.83443 2.23588
thorax -1.63034 2.81407 -1.39405
lowerneck -9.90067 -1.0021 -1.84798
upperneck 16.263 -1.0375 -0.0575422
head 6.59204 -0.613565 0.19884
rclavicle -5.66536e-014 -8.74653e-015
rhumerus -9.69692 6.43765 -84.4051
rradius 33.5071
rwrist -13.2677
rhand -20.5337 -45.6512
rfingers 7.12502
rthumb 5.82456 -75.5511
lclavicle -5.66536e-014 -8.74653e-015
lhumerus -57.0227 12.5676 71.3797
lradius 11.9131
lwrist -15.7555
lhand -19.586 -13.2288
lfingers 7.12502
lthumb 6.73948 16.644
rfemur -6.50735 -1.76323 29.4317
rtibia 30.1842
rfoot -17.7611 20.4741
rtoes 11.064
lfemur -38.5212 7.82336 -17.9519
ltibia 43.1258
lfoot -15.4838 1.6826
ltoes -20.2971
82
root 6.78296 15.6922 -18.7858 6.36658 -5.31965 -4.5472
lowerback -1.45444 4.71459 6.68235
upperback -2.46995 6.28457 2.11886
thorax -1.2656 3.05259 -1.4846
lowerneck -9.86307 -1.06678 -2.09471
upperneck 15.7828 -1.12956 0.192199
head 6.43611 -0.650021 0.312505
rclavicle -1.49632e-014 3.18055e-015
rhumerus -7.73095 6.99102 -83.6424
rradius 34.1739
rwrist -14.2274
rhand -21.2273 -45.6552
rfingers 7.12502
rthumb 5.15491 -75.5725
lclavicle -1.49632e-014 3.18055e-015
lhumerus -58.594 11.5382 71.2826
lradius 12.1632
lwrist -14.3224
lhand -18.9163 -13.6183
lfingers 7.12502
lthumb 7.38591 16.2328
rfemur -4.95834 -1.97057 28.9507
rtibia 29.1209
rfoot -17.2781 21.4489
rtoes 10.7983
lfemur -38.8424 7.92717 -17.9516
ltibia 40.5039
lfoot -15.2567 2.62994
ltoes -22.4017
83
root 6.79774 15.6794 -18.5439 6.3336 -5.90797 -4.64082
lowerback -1.41732 5.06811 6.81497
upperback -2.23245 6.74153 1.94504
thorax -0.97154 3.29035 -1.71063
lowerneck -10.3479 -1.11796 -2.00907
upperneck 15.4871 -1.24882 0.461089
head 6.42835 -0.679117 0.371991
rclavicle 2.14004e-014 1.74931e-014
rhumerus -5.61025 7.03444 -83.0162
rradius 34.6861
rwrist -14.8334
rhand -21.0538 -43.6919
rfingers 7.12502
rthumb 5.32239 -73.6051
lclavicle 2.14004e-014 1.74931e-014
lhumerus -59.928 10.9931 70.3689
lradius 12.2538
lwrist -13.6657
lhand -18.786 -13.3298
lfingers 7.12502
lthumb 7.51172 16.5168
rfemur -3.4477 -2.25723 28.5972
rtibia 28.0764
rfoot -16.1805 22.8698
rtoes 12.8426
lfemur -39.0676 7.57443 -17.5992
ltibia 37.7472
lfoot -15.2829 3.62998
ltoes -23.4608
84
root 6.81236 15.6673 -18.2935 6.53728 -6.48587 -4.72114
lowerback -1.76526 5.41264 6.92482
upperback -2.11217 7.1578 1.71283
thorax -0.577984 3.50955 -1.94845
lowerneck -10.8982 -1.2399 -1.60795
upperneck 15.5069 -1.47208 0.443754
head 6.5295 -0.76426 0.277909
rclavicle -7.68178e-014 -1.27222e-014
rhumerus -3.6429 7.13391 -82.5497
rradius 35.1123
rwrist -15.6226
rhand -19.2827 -38.6713
rfingers 7.12502
rthumb 7.03223 -68.5345
lclavicle -7.68178e-014 -1.27222e-014
lhumerus -61.3001 10.2979 69.4339
lradius 12.334
lwrist -12.9245
lhand -18.86 -12.7621
lfingers 7.12502
lthumb 7.44029 17.0871
rfemur -2.17796 -2.72857 28.1501
rtibia 26.9675
rfoot -14.3897 24.6576
rtoes 14.9911
lfemur -39.4425 7.06803 -17.1418
ltibia 34.956
lfoot -15.5331 4.24891
ltoes -20.7452
85
root 6.82359 15.6619 -18.0455 6.66636 -7.16784 -4.49898
lowerback -2.24603 5.74464 6.77244
upperback -2.24754 7.5638 1.50952
thorax -0.408129 3.71541 -2.01273
lowerneck -9.75428 -1.35314 -1.75791
upperneck 15.0832 -1.64938 0.623587
head 6.20105 -0.84553 0.352948
rclavicle 3.26628e-014 2.5842e-014
rhumerus -2.48843 7.60849 -82.0491
rradius 35.7308
rwrist -16.4342
rhand -19.3651 -38.2352
rfingers 7.12502
rthumb 6.95273 -68.1011
lclavicle 3.26628e-014 2.5842e-014
lhumerus -63.4643 9.93106 67.8378
lradius 12.333
lwrist -12.8974
lhand -18.8676 -13.1168
lfingers 7.12502
lthumb 7.43299 16.7326
rfemur -0.803347 -3.12339 27.3724
rtibia 25.7545
rfoot -13.1609 25.9728
rtoes 14.4897
lfemur -39.8057 6.69257 -16.9799
ltibia 32.2903
lfoot -15.5851 5.08797
ltoes -17.7317
86
root 6.83104 15.652 -17.8087 6.84827 -7.91467 -4.54613
lowerback -2.48622 6.13789 6.7518
upperback -2.5669 8.08181 1.38557
thorax -0.547698 3.96324 -2.09688
lowerneck -8.30622 -1.44446 -1.85499
upperneck 14.661 -1.81773 0.844896
head 5.82299 -0.918634 0.436569
rclavicle -3.86823e-014 -7.95139e-016
rhumerus -1.63386 7.50137 -81.5851
rradius 36.403
rwrist -16.2257
rhand -19.3804 -39.0133
rfingers 7.12502
rthumb 6.93794 -68.8796
lclavicle -3.86823e-014 -7.95139e-016
lhumerus -65.8457 9.04489 66.5786
lradius 12.6558
lwrist -12.2256
lhand -18.494 -13.8123
lfingers 7.12502
lthumb 7.79355 16.0241
rfemur 0.569413 -2.89472 27.0131
rtibia 24.4939
rfoot -12.3252 26.7387
rtoes 14.6025
lfemur -40.2481 6.44355 -16.4719
ltibia 29.7972
lfoot -15.6872 6.34974
ltoes -17.1172
87
root 6.84087 15.6328 -17.5713 7.22207 -8.48791 -5.21544
lowerback -2.64621 6.51859 7.28068
upperback -2.83713 8.57809 1.39158
thorax -0.625806 4.19532 -2.34525
lowerneck -7.72437 -1.51468 -1.67951
upperneck 14.4426 -1.95866 0.927498
head 5.65539 -0.973192 0.428196
rclavicle 4.71865e-014 1.90833e-014
rhumerus -0.434266 7.26159 -81.0402
rradius 36.8474
rwrist -15.9096
rhand -19.0896 -38.8516
rfingers 7.12502
rthumb 7.2187 -68.7085
lclavicle 4.71865e-014 1.90833e-014
lhumerus -67.7681 8.05178 65.5297
lradius 12.9662
lwrist -11.2833
lhand -17.894 -14.1374
lfingers 7.12502
lthumb 8.37262 15.6767
rfemur 1.77218 -2.54887 27.377
rtibia 23.2766
rfoot -11.4116 27.3414
rtoes 16.1505
lfemur -40.804 6.03757 -15.1674
ltibia 27.415
lfoot -16.3383 7.37787
ltoes -16.8699
88
root 6.85707 15.5953 -17.332 7.54095 -8.87675 -5.9582
lowerback -2.7695 6.6834 7.84368
upperback -2.69632 8.76588 1.52957
thorax -0.336074 4.2941 -2.46499
lowerneck -8.64044 -1.49369 -1.67869
upperneck 14.5422 -1.92713 0.993629
head 5.84423 -0.950219 0.443983
rclavicle 1.451e-013 4.13472e-014
rhumerus 1.68152 8.13039 -80.1644
rradius 37.1671
rwrist -16.4852
rhand -18.3136 -37.6194
rfingers 7.12502
rthumb 7.96762 -67.4493
lclavicle 1.451e-013 4.13472e-014
lhumerus -69.0913 8.38663 63.6644
lradius 12.8858
lwrist -11.549
lhand -17.5151 -14.1618
lfingers 7.12502
lthumb 8.7383 15.6374
rfemur 3.01369 -2.56674 27.7642
rtibia 22.0532
rfoot -10.3178 27.778
rtoes 17.3639
lfemur -41.3887 5.52216 -13.7428
ltibia 25.2156
lfoot -17.2705 8.1366
ltoes -15.961
89
root 6.87155 15.5544 -17.0909 7.63052 -9.37423 -6.12376
lowerback -2.71374 6.73256 7.71611
upperback -2.15692 8.80823 1.56291
thorax 0.174932 4.34606 -2.32621
lowerneck -11.0677 -1.40594 -1.72291
upperneck 15.0806 -1.77562 1.05101
head 6.43254 -0.866721 0.463805
rclavicle -1.87665e-014 5.1684e-015
rhumerus 4.51545 9.27965 -79.1598
rradius 37.5595
rwrist -17.178
rhand -18.3922 -37.8397
rfingers 7.12502
rthumb 7.89185 -67.6724
lclavicle -1.87665e-014 5.1684e-015
lhumerus -69.834 9.26739 61.8817
lradius 12.7664
lwrist -11.7752
lhand -17.0114 -14.4562
lfingers 7.12502
lthumb 9.2243 15.322
rfemur 4.44704 -3.0258 27.3808
rtibia 20.7691
rfoot -8.49493 28.4968
rtoes 18.5382
lfemur -41.781 4.87415 -12.8342
ltibia 23.2507
lfoot -18.3948 9.08751
ltoes -14.8594
90
root 6.88163 15.5207 -16.8467 7.60234 -9.99875 -6.07749
lowerback -2.58714 6.88089 7.44433
upperback -1.84759 9.00729 1.47503
thorax 0.419425 4.46222 -2.2506
lowerneck -12.3868 -1.33761 -1.69377
upperneck 15.3359 -1.67588 1.09283
head 6.74173 -0.808855 0.472921
rclavicle -4.05956e-014 -2.0276e-014
rhumerus 8.28206 14.3054 -76.1626
rradius 36.1886
rwrist -22.3471
rhand -20.348 -38.5481
rfingers 7.12502
rthumb 6.00384 -68.4431
lclavicle -4.05956e-014 -2.0276e-014
lhumerus -70.8413 9.89004 59.3808
lradius 12.4502
lwrist -12.5564
lhand -16.5711 -14.0287
lfingers 7.12502
lthumb 9.6492 15.7303
rfemur 5.96903 -3.4845 26.6997
rtibia 19.5108
rfoot -6.09783 29.4204
rtoes 20.2276
lfemur -41.9085 4.02212 -11.9731
ltibia 21.4309
lfoot -19.2673 10.4933
ltoes -15.2569
91
root 6.89245 15.4945 -16.6067 7.62435 -10.5671 -6.35946
lowerback -2.53366 7.14757 7.67578
upperback -1.78548 9.3582 1.43
thorax 0.529916 4.64049 -2.395
lowerneck -12.562 -1.43739 -1.59045
upperneck 15.2982 -1.80488 0.952244
head 6.75964 -0.876549 0.397482
rclavicle 1.17861e-013 6.44062e-014
rhumerus 9.84168 14.563 -75.1936
rradius 36.3677
rwrist -22.8862
rhand -20.4098 -38.1173
rfingers 7.12502
rthumb 5.9442 -68.0139
lclavicle 1.17861e-013 6.44062e-014
lhumerus -72.2166 10.4898 55.6208
lradius 11.9407
lwrist -14.5952
lhand -16.5628 -12.6487
lfingers 7.12502
lthumb 9.65716 17.1099
rfemur 7.4502 -3.02658 26.6312
rtibia 18.3472
rfoot -5.00438 29.366
rtoes 20.6085
lfemur -42.0429 3.47332 -10.9093
ltibia 19.7023
lfoot -18.93 12.5146
ltoes -19.8523
92
root 6.90527 15.4587 -16.3668 7.64038 -11.0831 -6.76197
lowerback -2.47605 7.41487 8.18099
upperback -1.96504 9.71765 1.42975
thorax 0.426344 4.80839 -2.65587
lowerneck -12.0554 -1.66838 -1.37684
upperneck 15.4194 -2.06786 0.366191
head 6.70547 -1.04249 0.152859
rclavicle -1.10611e-013 -9.74045e-015
rhumerus 9.92197 12.0962 -75.8818
rradius 37.0617
rwrist -20.2161
rhand -19.6228 -37.6886
rfingers 7.12502
rthumb 6.70393 -67.5624
lclavicle -1.10611e-013 -9.74045e-015
lhumerus -74.1109 10.5616 51.9181
lradius 11.6291
lwrist -16.5217
lhand -16.8884 -12.4705
lfingers 7.12502
lthumb 9.34298 17.3024
rfemur 8.96707 -2.45257 26.7633
rtibia 17.2686
rfoot -4.60902 28.8778
rtoes 20.0746
lfemur -42.1878 2.78913 -9.5106
ltibia 18.1328
lfoot -18.7959 13.921
ltoes -21.4771
93
root 6.9208 15.3993 -16.1197 7.67172 -11.5642 -7.20052
lowerback -2.42216 7.69562 8.82106
upperback -2.4469 10.1119 1.41825
thorax 0.0421296 4.97247 -3.02026
lowerneck -8.27916 -1.60511 -2.57029
upperneck 13.3427 -2.04872 1.67212
head 5.42548 -1.00898 0.798959
rclavicle 1.63935e-014 -2.78299e-015
rhumerus 12.8837 19.2507 -71.3306
rradius 35.1042
rwrist -27.7004
rhand -21.7804 -38.2397
rfingers 7.12502
rthumb 4.62081 -68.1693
lclavicle 1.63935e-014 -2.78299e-015
lhumerus -76.3623 10.0895 47.8317
lradius 11.2465
lwrist -18.9893
lhand -17.4059 -13.1048
lfingers 7.12502
lthumb 8.84364 16.6899
rfemur 10.5084 -2.2398 26.8123
rtibia 16.1858
rfoot -3.47398 28.621
rtoes 20.1647
lfemur -42.3867 2.13212 -8.05446
ltibia 16.8844
lfoot -19.3572 14.0505
ltoes -18.7116
